<svg width="18" height="7" viewBox="0 0 18 7" fill="none" xmlns="http://www.w3.org/2000/svg">
<path d="M10.8744 6.51782C10.6491 6.52601 10.4246 6.48816 10.2145 6.4066C9.62482 6.17915 9.05426 5.89559 8.39932 5.86753C8.18307 5.8456 7.97582 5.7698 7.79661 5.6471C6.67711 4.91362 5.40196 4.44985 4.07189 4.29241C3.38279 4.21226 2.7399 3.96978 2.22459 3.47079C2.1094 3.35011 1.97042 3.25451 1.81639 3.19001C1.66235 3.12552 1.4966 3.09352 1.32957 3.09605C0.898634 3.09605 0.68568 2.82452 0.709788 2.4127C0.73624 1.84391 0.872678 1.28558 1.11159 0.768446C1.31852 0.332584 1.76954 0.288495 2.07592 0.660231C2.08493 0.674085 2.09465 0.687466 2.10505 0.700312C2.36321 0.952812 2.24769 1.48687 2.69269 1.57304C3.24216 1.67825 3.78861 1.52695 4.32803 1.42274C4.86746 1.31854 5.33255 1.06002 5.79663 0.793496C6.18537 0.569052 6.62836 0.464845 6.992 0.179281C7.09684 0.108605 7.21539 0.0606715 7.33997 0.0385787C7.46456 0.0164859 7.59241 0.0207292 7.71525 0.0510301C8.37822 0.17728 9.00906 0.317555 9.72427 0.142208C10.784 -0.119309 11.7092 0.360639 12.552 0.992889C13.0633 1.37565 13.6188 1.65921 14.2777 1.72133C14.9045 1.78045 15.3234 1.52996 15.6489 1.00993C16.0165 0.422766 16.1883 0.430781 16.6393 0.983875C16.7026 1.06103 16.7709 1.13517 16.8312 1.21533C17.448 2.04497 17.1325 2.93072 16.121 3.05296C15.5751 3.10424 15.0553 3.30966 14.6223 3.64514C14.1491 4.01387 13.4882 3.92469 12.998 4.27538C12.6594 4.51686 12.2948 4.71726 11.9553 4.96074C11.661 5.17416 11.7413 5.53988 11.678 5.83847C11.5716 6.30239 11.3516 6.56591 10.8744 6.51782ZM12.0407 3.40265C11.932 3.3443 11.8124 3.30877 11.6894 3.29825C11.5664 3.28774 11.4425 3.30247 11.3255 3.34153C10.2496 3.6281 9.17681 3.54193 8.10098 3.35857C7.62584 3.27941 7.15171 3.18823 6.67457 3.12411C6.51887 3.10306 6.2788 3.07501 6.24062 3.2694C6.19643 3.49484 6.44755 3.48181 6.59622 3.5259C6.86844 3.60606 7.12459 3.72029 7.38677 3.8265C8.32197 4.19923 9.26721 4.51786 10.2788 4.01687C10.642 3.84537 11.0308 3.73403 11.4299 3.68722C11.6338 3.65916 11.8679 3.64914 12.0407 3.40466V3.40265Z" fill="#A47312"/>
</svg>
