<svg width="23" height="23" viewBox="0 0 23 23" fill="none" xmlns="http://www.w3.org/2000/svg">
<path fill-rule="evenodd" clip-rule="evenodd" d="M21.3156 9.10914C22.0981 8.85664 22.2106 8.70634 22.2197 7.89274C22.2438 7.3677 22.0047 7.013 21.6059 6.6593C21.1513 6.24896 20.6277 5.96888 20.1046 5.68906C19.8371 5.54593 19.5696 5.40288 19.3116 5.2425C18.5353 4.74916 17.6355 4.48354 16.715 4.47598C16.5816 4.47491 16.4481 4.47273 16.3145 4.47055C15.3303 4.45448 14.3441 4.43839 13.4101 4.86275C13.2298 4.94461 13.0414 5.00978 12.853 5.07493C12.8201 5.08634 12.7871 5.09774 12.7542 5.10924C12.7069 5.12788 12.6549 5.13114 12.6057 5.11855C12.5564 5.10595 12.5124 5.07814 12.4799 5.0391C12.4655 5.02339 12.4547 5.00478 12.4481 4.98453C12.4414 4.96428 12.4393 4.94285 12.4416 4.92169C12.444 4.90053 12.4509 4.88011 12.4618 4.86183C12.4728 4.84354 12.4875 4.8278 12.5051 4.81566C12.708 4.67116 12.8949 4.49852 13.0819 4.32583C13.5874 3.85909 14.0932 3.39198 14.9159 3.47902C15.4955 3.54014 16.0259 3.47701 16.4447 2.95097C16.7471 2.57122 17.2072 2.73855 17.2976 3.2175C17.3709 3.60526 17.6542 3.75255 17.9555 3.6243C18.275 3.48803 18.5221 3.43092 18.8234 3.63132C18.9464 3.68706 19.0859 3.69458 19.2142 3.65236C19.6491 3.53312 20.0308 3.61829 20.4126 3.84574C20.6201 3.95414 20.8425 4.03178 21.0725 4.0762C21.0886 4.08009 21.1048 4.08416 21.1211 4.08825C21.3485 4.14517 21.6007 4.20832 21.7375 3.9279C21.8021 3.79982 21.8252 3.65493 21.8038 3.51317C21.7824 3.37142 21.7175 3.23977 21.618 3.13634C20.51 1.81272 19.0474 1.03719 17.4483 0.503134C16.9179 0.325784 16.3483 0.170477 15.7767 0.218572C14.055 0.362857 12.3996 0.689505 10.9551 1.77665C9.67235 2.74056 8.6136 3.8247 8.06514 5.36975C7.5567 6.83669 7.28149 8.37395 7.24948 9.92575C7.20417 11.4016 7.31577 12.8725 7.42727 14.3421C7.43939 14.5019 7.45152 14.6617 7.46343 14.8214C7.51466 15.5108 7.58699 16.2152 8.5252 16.4016C8.93202 16.4777 9.18918 16.8815 9.149 17.3795C9.11538 17.7961 8.81456 17.8123 8.54069 17.827C8.48723 17.8298 8.43479 17.8327 8.38557 17.8384C7.73417 17.9066 7.12566 18.1947 6.66083 18.655C6.25903 19.0388 5.7849 19.167 5.19123 18.9215C4.73449 18.7306 4.33047 18.4561 3.92744 18.1824C3.50348 17.8943 3.0806 17.6071 2.5986 17.4186C2.19579 17.2612 2.1526 16.9597 2.32738 16.6019C2.46547 16.3519 2.53054 16.0683 2.51522 15.7833C2.51195 15.6568 2.46653 15.5349 2.38614 15.4369C2.30575 15.339 2.19496 15.2705 2.07123 15.2423C1.82312 15.1691 1.6634 15.3014 1.52176 15.4897C1.22356 15.9126 1.0019 16.3843 0.866825 16.8835C0.658892 17.5588 0.797514 18.0719 1.35602 18.5187C1.56661 18.688 1.77556 18.8593 1.98444 19.0306C2.52481 19.4736 3.0647 19.9162 3.63123 20.3223C4.1586 20.7 4.45091 21.1269 4.3595 21.7862C4.35181 21.92 4.37411 22.0538 4.42479 22.178C4.56342 22.5888 4.86879 22.6699 5.19726 22.3934C5.45743 22.175 5.55386 21.8894 5.57998 21.5557C5.58128 21.4964 5.59475 21.4379 5.61955 21.384C5.64435 21.33 5.67996 21.2817 5.72419 21.242C5.76842 21.2023 5.82033 21.1721 5.87672 21.1531C5.93312 21.1342 5.9928 21.127 6.0521 21.1319C6.33223 21.1309 6.34319 21.3504 6.35312 21.5491L6.35345 21.5557C6.36433 21.7227 6.41128 21.8854 6.49107 22.0327C6.50535 22.0607 6.51917 22.0896 6.53306 22.1188C6.62961 22.3211 6.72978 22.5311 7.01342 22.4715C7.31678 22.4054 7.49055 22.177 7.5448 21.8704C7.55246 21.8256 7.55476 21.7799 7.55705 21.7343C7.55896 21.6962 7.56087 21.6582 7.5659 21.6209C7.6342 21.1199 7.80898 20.7491 8.40566 20.672C8.94709 20.6019 9.45035 20.3544 9.72157 19.8534C9.93955 19.4486 10.2751 19.2662 10.6708 19.0989C11.366 18.8053 11.9164 18.3414 11.9978 17.5398C12.0771 16.7542 11.7758 16.137 11.1239 15.636C10.6609 15.2744 10.3122 14.7874 10.1194 14.2333C9.93494 13.7412 9.98262 13.2618 10.0302 12.7836C10.0544 12.5403 10.0786 12.2973 10.0721 12.053C10.036 10.6632 10.3735 9.38368 11.1972 8.24543C11.4785 7.85767 11.7647 7.77951 12.1816 8.01798C12.52 8.21047 12.7501 8.50296 12.9802 8.79538C13.0076 8.83022 13.035 8.86506 13.0626 8.89973C14.0249 10.1131 15.7567 10.5119 17.0806 9.54701C17.1858 9.46434 17.3021 9.39688 17.4262 9.34661C18.0941 9.11215 18.4266 8.62819 18.5381 7.94384C18.6727 7.11821 18.6858 7.12021 19.4332 7.4699C20.1926 7.82661 20.2649 8.05305 19.835 8.76245C19.7265 8.94181 19.6371 9.13018 19.7707 9.32156C19.9234 9.53899 20.1534 9.4949 20.3653 9.42977C20.5296 9.37877 20.692 9.32193 20.8543 9.26512C21.0077 9.21146 21.1609 9.15782 21.3156 9.10914ZM14.8905 7.5883C15.3014 7.5883 15.6345 7.31913 15.6345 6.98708C15.6345 6.65504 15.3014 6.38586 14.8905 6.38586C14.4795 6.38586 14.1464 6.65504 14.1464 6.98708C14.1464 7.31913 14.4795 7.5883 14.8905 7.5883Z" fill="#A47312"/>
</svg>
