<svg width="17" height="11" viewBox="0 0 17 11" fill="none" xmlns="http://www.w3.org/2000/svg">
<path fill-rule="evenodd" clip-rule="evenodd" d="M9.61434 4.1224C9.86376 4.29034 10.1151 4.45959 10.4013 4.57937C10.1125 4.46585 9.81754 4.46568 9.52451 4.46551C9.30285 4.46538 9.08232 4.46525 8.86644 4.41605C8.33803 4.30904 7.79138 4.33278 7.27429 4.48519C6.86714 4.59473 6.45241 4.64569 6.03736 4.69669C5.71206 4.73666 5.38657 4.77666 5.06437 4.8449C4.14324 5.03928 3.29744 5.34689 2.5531 5.90299C1.45517 6.72461 1.45115 7.32881 2.50187 8.20754L2.50486 8.21005C2.52905 8.23033 2.55417 8.25138 2.58022 8.26967C3.02923 8.5913 3.28137 8.51315 3.36072 7.96005C3.44008 7.40696 3.81677 7.16648 4.28788 7.03122C4.67763 6.919 4.86046 7.08432 4.81124 7.49313C4.78713 7.73461 4.77005 7.9851 4.91169 8.17147C5.43001 8.85182 5.98551 9.50411 6.87952 9.7045C7.0451 9.74117 7.2258 9.7552 7.40501 9.76911C7.74005 9.79512 8.06987 9.82073 8.28584 9.99307C8.85941 10.448 9.40888 10.3838 10.0226 10.2937C10.1712 10.2616 10.3261 10.2767 10.4656 10.3368C11.1155 10.7195 11.7102 10.5191 12.328 10.2426C12.6326 10.1042 12.9196 9.94183 13.2068 9.77937C13.3543 9.6959 13.5019 9.61242 13.6519 9.53216C14.3842 9.14139 14.5962 8.40393 14.0829 7.74663C13.9082 7.52507 13.752 7.28743 13.5958 7.04974C13.2129 6.46728 12.8299 5.88453 12.1743 5.53727C12.0779 5.48617 11.9523 5.401 12.0527 5.26373C12.1261 5.16353 12.2376 5.21563 12.327 5.26373C12.4214 5.31357 12.5166 5.3623 12.6117 5.411C13.2142 5.7196 13.8143 6.02696 14.2255 6.60939C14.2669 6.66868 14.3078 6.73087 14.3491 6.79368C14.515 7.04611 14.6873 7.30845 14.9287 7.43201C15.3526 7.65244 15.4379 7.94302 15.4309 8.35383C15.4259 8.68348 15.6147 8.91494 15.9392 8.92496C16.2637 8.93498 16.352 8.66946 16.4334 8.39291C16.5701 7.92699 16.5053 7.46919 16.4406 7.01193C16.3916 6.66578 16.3427 6.31994 16.3812 5.97112C16.3922 5.87393 16.3048 5.74869 16.2325 5.66252C16.0108 5.39899 15.844 5.10198 15.6774 4.80506C15.5994 4.66621 15.5215 4.52738 15.4379 4.392C15.36 4.26547 15.2965 4.13034 15.233 3.99521C15.1191 3.75259 15.0052 3.50994 14.8071 3.31688C14.7715 3.28222 14.7359 3.24754 14.7003 3.2129C14.0586 2.58758 13.4256 1.9708 12.5851 1.56542C11.1899 0.877421 9.67291 0.468927 8.12009 0.363044C6.17034 0.238798 4.42149 0.908122 2.70779 1.7548C2.36983 1.92146 2.08615 2.15658 1.80355 2.39081C1.48808 2.65227 1.17396 2.91262 0.78717 3.0754C0.621559 3.14508 0.528315 3.31692 0.437475 3.48433C0.412057 3.53117 0.386828 3.57767 0.360254 3.62148C0.315598 3.68325 0.294056 3.75868 0.299378 3.83465C0.304701 3.91062 0.336548 3.98233 0.389382 4.0373C0.504901 4.17157 0.642519 4.27076 0.826345 4.20764C0.965534 4.15134 1.10166 4.0878 1.23418 4.01726C1.43867 3.92219 1.64045 3.82076 1.84224 3.71932C2.35712 3.46051 2.87203 3.20168 3.43204 3.04835C3.45588 3.04185 3.47964 3.03542 3.50335 3.029C3.87827 2.92745 4.23682 2.83034 4.57316 2.58343C4.89662 2.34596 5.41394 2.32492 5.7153 2.5654C6.08714 2.86835 6.46166 2.86728 6.86069 2.86613C6.88529 2.86606 6.90998 2.86599 6.93477 2.86599H8.03973C8.0478 2.86609 8.05593 2.86616 8.06409 2.86622C8.22264 2.86753 8.39487 2.86894 8.40537 3.10145C8.42044 3.43812 8.65047 3.58541 8.9227 3.70966C9.16757 3.82159 9.39017 3.97146 9.61434 4.1224ZM10.988 7.76868C11.1407 7.16949 11.3677 7.00817 12.0296 7.00817C12.3802 7.00617 12.6514 7.34584 12.4415 7.59834C12.352 7.70674 12.2642 7.81726 12.1763 7.92795C11.7846 8.42093 11.3904 8.91729 10.8293 9.24459C10.7127 9.31473 10.5329 9.41192 10.4114 9.29068C10.284 9.16359 10.3708 9.05367 10.4521 8.9509C10.4765 8.91999 10.5004 8.88972 10.5179 8.85983C10.7252 8.51997 10.8835 8.15264 10.988 7.76868ZM7.40624 7.42297C7.82354 7.42297 8.16184 7.14961 8.16184 6.8124C8.16184 6.47518 7.82354 6.20182 7.40624 6.20182C6.98893 6.20182 6.65064 6.47518 6.65064 6.8124C6.65064 7.14961 6.98893 7.42297 7.40624 7.42297Z" fill="#A47312"/>
</svg>
